<?xml version="1.0" standalone="no"?>
<!DOCTYPE svg PUBLIC "-//W3C//DTD SVG 20010904//EN"
 "http://www.w3.org/TR/2001/REC-SVG-20010904/DTD/svg10.dtd">
<svg version="1.0" xmlns="http://www.w3.org/2000/svg"
 width="500.000000pt" height="500.000000pt" viewBox="0 0 500.000000 500.000000"
 preserveAspectRatio="xMidYMid meet">
<metadata>
Created by potrace 1.14, written by Peter Selinger 2001-2017
</metadata>
<g transform="translate(0.000000,500.000000) scale(0.100000,-0.100000)"
fill="#000000" stroke="none">
<path d="M3138 4995 c-2 -2 -48 -6 -103 -10 -55 -3 -122 -8 -150 -10 -27 -2
-86 -6 -130 -10 -44 -3 -107 -7 -140 -10 -33 -3 -89 -7 -125 -9 -36 -3 -99 -8
-140 -11 -41 -3 -102 -8 -135 -10 -33 -2 -98 -7 -145 -10 -47 -4 -112 -8 -145
-11 -33 -2 -85 -6 -115 -8 -30 -3 -93 -7 -139 -11 -47 -3 -110 -8 -140 -11
-31 -2 -85 -7 -121 -9 -36 -2 -110 -7 -165 -11 -55 -4 -128 -8 -162 -8 -35 -1
-63 -3 -63 -6 0 -5 -74 -10 -187 -13 -29 -1 -53 -4 -53 -7 0 -3 -29 -5 -65 -4
-36 0 -65 -2 -65 -5 0 -3 -19 -6 -42 -5 -24 0 -47 -2 -53 -5 -5 -3 -16 -6 -25
-7 -34 -4 -69 -13 -88 -23 -11 -6 -22 -7 -26 -4 -3 3 -6 1 -6 -6 0 -7 -4 -10
-9 -7 -5 3 -14 -1 -21 -9 -7 -8 -18 -15 -24 -16 -24 -1 -103 -69 -153 -129
-28 -36 -51 -67 -51 -70 1 -3 -9 -27 -21 -53 -12 -26 -24 -57 -26 -68 -2 -11
-6 -28 -9 -37 -3 -9 -8 -39 -11 -67 -8 -63 -9 -2817 -1 -2865 5 -29 14 -70 22
-102 1 -5 2 -9 4 -10 1 -2 3 -11 5 -21 7 -37 86 -197 98 -197 4 0 7 -5 7 -11
0 -11 50 -82 63 -87 4 -2 7 -8 7 -13 0 -5 19 -33 43 -62 23 -30 69 -89 102
-132 33 -42 68 -87 77 -99 10 -11 21 -25 26 -31 4 -5 19 -26 32 -45 14 -19 31
-39 38 -43 6 -4 12 -15 12 -22 0 -8 3 -15 8 -15 4 0 29 -30 57 -68 27 -37 55
-74 62 -82 6 -8 42 -53 80 -100 78 -99 168 -192 177 -183 3 3 8 -2 12 -11 3
-9 12 -16 19 -16 8 0 20 -6 27 -13 17 -15 65 -34 153 -58 62 -18 92 -19 270
-14 110 3 216 7 235 9 19 2 98 7 175 11 77 4 158 9 180 10 22 2 92 6 155 10
63 4 138 8 165 10 57 3 221 13 340 20 44 3 114 7 155 10 41 2 116 7 165 10 50
3 128 8 175 11 47 3 121 7 165 9 44 2 80 4 80 5 0 2 110 8 227 12 54 2 98 7
98 11 0 4 9 3 20 -3 11 -6 20 -7 20 -3 0 4 24 9 53 9 108 3 218 11 224 17 3 4
13 2 23 -3 10 -5 20 -7 23 -3 4 3 39 7 79 9 94 5 164 12 208 20 19 4 43 7 53
8 9 0 17 4 17 8 0 4 3 7 8 6 33 -7 177 76 239 140 29 28 86 108 88 122 0 3 6
14 12 25 18 33 44 134 49 189 5 61 6 3150 0 3186 -13 87 -67 201 -119 249 -61
56 -85 76 -180 143 -56 40 -103 76 -105 80 -2 5 -10 8 -18 8 -8 0 -17 7 -20
15 -4 8 -15 15 -25 15 -10 0 -19 4 -19 8 0 5 -39 35 -87 68 -49 32 -146 100
-218 151 -214 151 -240 169 -322 225 -190 129 -309 166 -537 165 -69 0 -127
-1 -128 -2z"/>
</g>
</svg>
